<svg xmlns="http://www.w3.org/2000/svg" height="8" viewBox="0 0 8 8" width="8">
  <title>Asterisk</title>
  <rect id="ToDelete" fill="#ff13dc" opacity="0" width="8" height="8" /><path d="M6.573,6.55793c.05556.05556.09245.12978,0,.204l-1.14844.74089c-.09245.05555-.12934.01867-.16667-.07422L3.83206,4.94682,1.9614,7.00237c-.01867.03689-.07423.07378-.12934,0L.94317,6.07615C.85073,6.0206.869,5.965.94317,5.90948L3.05428,4.14993l-2.408-.90711c-.03733,0-.09244-.07378-.05555-.16667L1.22051,1.817a.09732.09732,0,0,1,.16666-.03644L3.49828,3.15082,3.62806.44726A.09733.09733,0,0,1,3.73917.33615L5.27651.53971c.09244,0,.11111.03689.09244.12978L4.64673,3.317l2.44444-.74089c.05556-.03689.11111-.03689.148.07378l.24089,1.37022c.01867.09245,0,.12978-.07422.12978l-2.55556.204Z" />
</svg>