<svg xmlns="http://www.w3.org/2000/svg" height="18" viewBox="0 0 18 18" width="18">
  <defs>
    <style>
      .a {
        fill: #6E6E6E;
      }
    </style>
  </defs>
  <title>S App 18 N</title>
  <rect id="Canvas" fill="#ff13dc" opacity="0" width="18" height="18" /><path class="a" d="M16,1H2A1,1,0,0,0,1,2V16a1,1,0,0,0,1,1H16a1,1,0,0,0,1-1V2A1,1,0,0,0,16,1ZM9,15.1A6.1,6.1,0,1,1,15.1,9,6.1,6.1,0,0,1,9,15.1Z" />
  <path class="a" d="M7.7955,10.242l-.55,1.661A.117.117,0,0,1,7.116,12H5.8215c-.086,0-.1075-.043-.086-.1185C6.307,10.2635,7.224,7.61,7.9035,5.744a1.92436,1.92436,0,0,0,.1075-.6685A.068.068,0,0,1,8.0865,5H9.823a.081.081,0,0,1,.0865.054c.7875,2.168,1.65,4.638,2.45,6.838.032.0755.0105.108-.065.108h-1.425a.09649.09649,0,0,1-.108-.0755l-.604-1.6825ZM9.823,9.0125c-.2155-.7335-.647-1.963-.8625-2.74H8.95c-.162.7335-.55,1.866-.8305,2.74Z" />
</svg>