<svg xmlns="http://www.w3.org/2000/svg" height="18" viewBox="0 0 18 18" width="18">
  <defs>
    <style>
      .a {
        fill: #6E6E6E;
      }
    </style>
  </defs>
  <title>S AppRefresh 18 N</title>
  <rect id="Canvas" fill="#ff13dc" opacity="0" width="18" height="18" /><path class="a" d="M13.5,16.71747a3.10593,3.10593,0,0,1-2.3855-1.06128L12.2683,14.5H9v3.275l1.252-1.25434A4.37224,4.37224,0,0,0,13.5,18,4.64924,4.64924,0,0,0,18,13.5H16.85986A3.44436,3.44436,0,0,1,13.5,16.71747Zm3.27905-6.23822A4.60724,4.60724,0,0,0,13.5,9,4.64924,4.64924,0,0,0,9,13.5h1.14014A3.44441,3.44441,0,0,1,13.5,10.28247a3.14156,3.14156,0,0,1,2.43555,1.05834L14.80031,12.5H18V9.23247ZM8.1153,7.83545c-.2688,0-.37494,0-.51331-.008V5.937c.0896-.00866.31787-.0166.60284-.0166.74988,0,1.1735.35034,1.1735.94561C9.37836,7.60718,8.79974,7.83545,8.1153,7.83545ZM3.4835,5.89581c.16321.57068.54608,1.70337.71729,2.2415h-1.426c.2442-.74182.57038-1.69543.70074-2.2415ZM13.92822,6.866a.84441.84441,0,0,1-.26448.64234C13.60882,7.50683,13.5553,7.5,13.5,7.5a6.002,6.002,0,0,0-1.3482.15765V5.937c.08959-.00866.31787-.0166.6029-.0166C13.5045,5.92035,13.92822,6.27069,13.92822,6.866ZM7.5,13.5a6.00174,6.00174,0,0,1,3.66571-5.52893V5.1546c0-.04119.0163-.06573.05707-.06573.30957-.00793.91278-.02387,1.50769-.02387,1.58093,0,2.16754.87989,2.16754,1.77637a1.91463,1.91463,0,0,1-.1593.78809A5.94069,5.94069,0,0,1,16,8.05078V3.61108A3.61111,3.61111,0,0,0,12.38892,0H3.61115A3.61112,3.61112,0,0,0,0,3.61108v8.77777A3.61115,3.61115,0,0,0,3.61114,16H8.05078A5.96789,5.96789,0,0,1,7.5,13.5ZM5.92846,10.4353H5.01569a.08169.08169,0,0,1-.0813-.04907l-.47278-1.361H2.514L2.06574,10.3703a.08106.08106,0,0,1-.08991.065H1.161c-.04876,0-.065-.02454-.05707-.08161L2.78277,5.57793A1.24227,1.24227,0,0,0,2.85608,5.138c0-.03253.01623-.05706.04907-.05706H4.03791c.04083,0,.04876.00793.05706.04907l1.88257,5.23169C5.98554,10.41076,5.97754,10.4353,5.92846,10.4353Zm.68744-.05707V5.1546c0-.04119.01624-.06573.05707-.06573.30957-.00793.91278-.02387,1.50763-.02387,1.581,0,2.1676.87989,2.1676,1.77637,0,1.296-1.00232,1.858-2.23291,1.858H7.602v1.6709c0,.04047-.01623.065-.06537.065H6.681C6.64013,10.4353,6.6159,10.41876,6.6159,10.37823Z" />
</svg>