<svg xmlns="http://www.w3.org/2000/svg" height="18" viewBox="0 0 18 18" width="18">
  <defs>
    <style>
      .a {
        fill: #6E6E6E;
      }
    </style>
  </defs>
  <title>S RSS 18 N</title>
  <rect id="Canvas" fill="#ff13dc" opacity="0" width="18" height="18" /><circle class="a" cx="3.9965" cy="14.0035" r="2" />
  <path class="a" d="M10.9915,16.0035h-2a.25.25,0,0,1-.25-.2445,6.7595,6.7595,0,0,0-6.5-6.5.25.25,0,0,1-.244-.25v-2a.25.25,0,0,1,.24994-.25006L2.253,6.759a9.2625,9.2625,0,0,1,8.99,8.991.25.25,0,0,1-.24647.25348Z" />
  <path class="a" d="M15.9925,16.0035h-2a.25.25,0,0,1-.25-.2465,11.85,11.85,0,0,0-11.5-11.595.25.25,0,0,1-.2465-.25V2.0075a.25.25,0,0,1,.25-.25l.005.00005A14.2675,14.2675,0,0,1,16.2445,15.75a.25.25,0,0,1-.24647.25348Z" />
</svg>